<svg width="268" height="268" viewBox="0 0 268 268" fill="none" xmlns="http://www.w3.org/2000/svg">
<path d="M212.167 0H55.8333C25.0022 0 0 25.0022 0 55.8333V212.167C0 242.998 25.0022 268 55.8333 268H212.167C243.009 268 268 242.998 268 212.167V55.8333C268 25.0022 243.009 0 212.167 0ZM162.296 218.755C157.774 219.626 156.333 216.845 156.333 214.467V189.956C156.333 181.615 153.408 176.188 150.192 173.418C170.091 171.207 190.995 163.648 190.995 129.344C190.995 119.584 187.511 111.611 181.805 105.369C182.72 103.113 185.78 94.0233 180.922 81.7288C180.922 81.7288 173.43 79.328 156.378 90.8855C149.231 88.8755 141.593 87.904 134 87.8593C126.407 87.8928 118.769 88.8755 111.633 90.8632C94.5705 79.3057 87.0665 81.7065 87.0665 81.7065C82.2202 94.0122 85.2798 103.091 86.2067 105.358C80.4893 111.611 77.0053 119.573 77.0053 129.332C77.0053 163.547 97.8535 171.219 117.708 173.485C115.151 175.719 112.839 179.649 112.035 185.434C106.932 187.712 94.0122 191.654 86.0392 177.997C86.0392 177.997 81.3157 169.421 72.3377 168.784C72.3377 168.784 63.6277 168.673 71.7235 174.222C71.7235 174.222 77.586 176.969 81.6507 187.287C81.6507 187.287 86.8208 203.233 111.667 197.829V214.456C111.667 216.812 110.226 219.581 105.771 218.755C70.2607 206.952 44.6667 173.463 44.6667 134C44.6667 84.6545 84.6657 44.6667 134 44.6667C183.334 44.6667 223.333 84.6545 223.333 134C223.333 173.452 197.773 206.93 162.296 218.755V218.755Z" fill="#3E75C3"/>
</svg>
