<svg width="250" height="150" viewBox="0 0 250 150" fill="none" xmlns="http://www.w3.org/2000/svg">
<path d="M58.9893 39.1221H106.142V42.8494H63.3115V70.9022H103.587V74.6295H63.3115V105.429H106.633V109.156H58.9893V39.1221ZM110.366 39.1221H115.376L137.576 69.9214L160.268 39.1221L191.133 0L140.425 73.1582L166.555 109.156H161.349L137.576 76.3951L113.706 109.156H108.597L134.924 73.1582L110.366 39.1221ZM168.422 42.8494V39.1221H222.156V42.8494H197.401V109.156H193.078V42.8494H168.422Z" fill="#FFF9F9"/>
<path d="M0 39.1221H5.40286L79.9052 150L49.1169 109.156L4.51876 44.4188L4.32229 109.156H0V39.1221Z" fill="#FFF9F9"/>
<path d="M221.721 104.304C222.614 104.304 223.266 103.623 223.266 102.744C223.266 101.865 222.614 101.184 221.721 101.184C220.837 101.184 220.175 101.865 220.175 102.744C220.175 103.623 220.837 104.304 221.721 104.304ZM225.968 100.2C225.968 102.796 227.85 104.492 230.593 104.492C233.516 104.492 235.282 102.744 235.282 99.708V89.019H232.927V99.6975C232.927 101.383 232.076 102.283 230.572 102.283C229.227 102.283 228.312 101.446 228.281 100.2H225.968ZM238.362 100.064C238.531 102.765 240.791 104.492 244.155 104.492C247.75 104.492 250 102.681 250 99.7918C250 97.52 248.717 96.2637 245.606 95.5413L243.934 95.133C241.958 94.6724 241.159 94.0547 241.159 92.9764C241.159 91.6154 242.399 90.7255 244.26 90.7255C246.026 90.7255 247.246 91.5944 247.466 92.9868H249.758C249.622 90.4428 247.372 88.6526 244.292 88.6526C240.98 88.6526 238.772 90.4428 238.772 93.1334C238.772 95.3529 240.023 96.672 242.767 97.3106L244.723 97.7817C246.73 98.2528 247.614 98.9438 247.614 100.095C247.614 101.435 246.226 102.409 244.334 102.409C242.305 102.409 240.896 101.498 240.696 100.064H238.362Z" fill="#FFF9F9"/>
</svg>
