<svg width="391" height="89" viewBox="0 0 391 89" fill="none" xmlns="http://www.w3.org/2000/svg">
<path d="M195.044 22.2828C179.795 22.2828 168.782 32.31 168.782 47.3181C168.782 62.3262 181.163 72.3534 196.412 72.3534C205.666 72.3534 213.747 68.6833 218.83 62.5228L208.273 56.3623C205.47 59.4426 201.235 61.2121 196.477 61.2121C189.83 61.2121 184.226 57.7386 182.141 52.1679H220.915C221.241 50.595 221.371 49.0221 221.371 47.3181C221.306 32.2445 210.358 22.2828 195.044 22.2828ZM181.945 42.4028C183.705 36.8321 188.397 33.3586 195.044 33.3586C201.691 33.3586 206.383 36.8321 208.142 42.4028H181.945ZM343.95 22.2828C328.701 22.2828 317.687 32.31 317.687 47.3181C317.687 62.3262 330.069 72.3534 345.318 72.3534C354.572 72.3534 362.652 68.6833 367.735 62.5228L357.178 56.3623C354.376 59.4426 350.14 61.2121 345.383 61.2121C338.736 61.2121 333.132 57.7386 331.047 52.1679H369.821C370.147 50.595 370.277 49.0221 370.277 47.3181C370.277 32.2445 359.264 22.2828 343.95 22.2828ZM330.916 42.4028C332.676 36.8321 337.368 33.3586 344.015 33.3586C350.662 33.3586 355.354 36.8321 357.113 42.4028H330.916ZM276.958 47.3181C276.958 55.6414 282.367 61.2121 290.774 61.2121C296.443 61.2121 300.744 58.5906 302.96 54.3962L313.582 60.5567C309.216 67.8969 300.94 72.3534 290.774 72.3534C275.459 72.3534 264.511 62.3262 264.511 47.3181C264.511 32.31 275.525 22.2828 290.774 22.2828C300.94 22.2828 309.151 26.7393 313.582 34.0795L302.96 40.2401C300.744 35.9801 296.508 33.4241 290.774 33.4241C282.367 33.3586 276.958 38.9293 276.958 47.3181ZM391 6.94698V70.9116H378.553V6.94698H391V6.94698ZM51.0907 0L102.181 89H0L51.0907 0ZM178.882 6.94698L140.564 73.7297L102.246 6.94698H116.648L140.63 48.6944L164.611 6.94698H178.882ZM260.341 23.6591V37.1598C258.972 36.7666 257.473 36.5044 255.909 36.5044C247.894 36.5044 242.094 42.0751 242.094 50.3984V70.9772H229.647V23.6591H242.094V36.4389C242.094 29.3608 250.24 23.6591 260.341 23.6591Z" fill="white"/>
</svg>
